<svg width="32" height="32" viewBox="0 0 32 32" fill="none" xmlns="http://www.w3.org/2000/svg">
<rect x="1" y="23.6274" width="27.4286" height="4.95063" rx="2.47532" transform="rotate(-45 1 23.6274)" fill="#03989F"/>
<rect x="7.73315" y="23.8956" width="27.4286" height="4.95063" rx="2.47532" transform="rotate(-45 7.73315 23.8956)" fill="#4BE3EB"/>
<path d="M29.7 25.4C28.66 25.92 27.5533 26.18 26.38 26.18C25.34 26.18 24.3933 26.02 23.54 25.7C21.7 25.02 20.1333 23.6933 18.84 21.72C18.5067 21.24 17.8867 20.32 16.98 18.96C16.0733 17.6 15.4867 16.7333 15.22 16.36C14.7533 15.6267 14.38 15.2267 14.1 15.16V14.96C14.1133 14.96 14.1267 14.96 14.14 14.96C14.1667 14.96 14.1933 14.96 14.22 14.96C14.2467 14.96 14.2733 14.96 14.3 14.96C14.3267 14.96 14.36 14.96 14.4 14.96C14.44 14.96 14.4733 14.96 14.5 14.96C15.18 14.96 15.8067 14.8067 16.38 14.5C17.2467 14.02 17.68 13.1333 17.68 11.84C17.68 10.8933 17.4133 10.1667 16.88 9.66C16.3467 9.14 15.7067 8.88 14.96 8.88H13.44V20.54C13.44 20.8867 13.5667 21.1867 13.82 21.44C14.0733 21.68 14.3733 21.8 14.72 21.8H14.98V22H8.9V21.8H9.16C9.49333 21.8 9.78667 21.68 10.04 21.44C10.2933 21.2 10.4267 20.9067 10.44 20.56V9.46C10.4267 9.11333 10.2933 8.82 10.04 8.58C9.8 8.32667 9.50667 8.2 9.16 8.2H8.9V8H15.76C17.48 8 18.8133 8.39333 19.76 9.18C20.5067 9.79333 20.88 10.66 20.88 11.78C20.88 12.9 20.5133 13.8133 19.78 14.52C19.06 15.2133 18.2333 15.56 17.3 15.56C17.22 15.56 17.1333 15.5533 17.04 15.54C17.5867 15.8333 18.04 16.16 18.4 16.52C18.7733 16.88 19.0933 17.22 19.36 17.54C19.64 17.86 19.8733 18.1467 20.06 18.4C20.26 18.64 20.52 18.9667 20.84 19.38C21.16 19.78 21.4933 20.2 21.84 20.64C22.1867 21.08 22.5667 21.5333 22.98 22C23.4067 22.4533 23.8733 22.8867 24.38 23.3C24.9 23.7133 25.4267 24.0533 25.96 24.32C27.0933 24.8933 28.34 25.1867 29.7 25.2V25.4Z" fill="black"/>
</svg>
