<svg width="30" height="30" viewBox="0 0 30 30" fill="none" xmlns="http://www.w3.org/2000/svg">
<path d="M30 25.8333C30 28.135 28.135 30 25.8333 30H4.16667C1.86583 30 0 28.135 0 25.8333V4.16667C0 1.865 1.86583 0 4.16667 0H25.8333C28.135 0 30 1.865 30 4.16667V25.8333Z" fill="url(#paint0_linear_325_42)"/>
<path d="M5.17236 10.9051H9.26719V24.8275H5.17236V10.9051ZM7.20749 9.26719H7.18456C5.96266 9.26719 5.17236 8.3565 5.17236 7.21896C5.17236 6.05685 5.98723 5.17236 7.23124 5.17236C8.47689 5.17236 9.24426 6.05685 9.26719 7.21896C9.26719 8.35568 8.47689 9.26719 7.20749 9.26719ZM24.8275 24.8275H20.7327V17.3758C20.7327 15.5757 19.7295 14.3472 18.1186 14.3472C16.8893 14.3472 16.2243 15.176 15.9016 15.977C15.7837 16.2636 15.8189 17.0564 15.8189 17.4568V24.8275H11.7241V10.9051H15.8189V13.0475C16.4094 12.1336 17.334 10.9051 19.6992 10.9051C22.6294 10.9051 24.8267 12.7478 24.8267 16.8623L24.8275 24.8275Z" fill="#141414"/>
<defs>
<linearGradient id="paint0_linear_325_42" x1="15" y1="0" x2="15" y2="30" gradientUnits="userSpaceOnUse">
<stop stop-color="#4BE3EB"/>
<stop offset="1" stop-color="#03989F"/>
</linearGradient>
</defs>
</svg>
