<svg width="45" height="45" viewBox="0 0 45 45" fill="none" xmlns="http://www.w3.org/2000/svg">
<path d="M22.5 4.05375C28.5075 4.05375 29.22 4.07625 31.5919 4.185C34.0444 4.2975 36.57 4.85625 38.3569 6.64312C40.1606 8.44687 40.7025 10.9481 40.815 13.4081C40.9237 15.78 40.9462 16.4925 40.9462 22.5C40.9462 28.5075 40.9237 29.22 40.815 31.5919C40.7044 34.0313 40.1325 36.5813 38.3569 38.3569C36.5531 40.1606 34.0538 40.7025 31.5919 40.815C29.22 40.9237 28.5075 40.9462 22.5 40.9462C16.4925 40.9462 15.78 40.9237 13.4081 40.815C10.9875 40.7044 8.40375 40.1194 6.64312 38.3569C4.84875 36.5625 4.2975 34.0369 4.185 31.5919C4.07625 29.22 4.05375 28.5075 4.05375 22.5C4.05375 16.4925 4.07625 15.78 4.185 13.4081C4.29563 10.9781 4.87312 8.41312 6.64312 6.64312C8.44312 4.84313 10.9538 4.2975 13.4081 4.185C15.78 4.07625 16.4925 4.05375 22.5 4.05375ZM22.5 0C16.3894 0 15.6225 0.02625 13.2225 0.135C9.74438 0.294375 6.29062 1.26187 3.77625 3.77625C1.2525 6.3 0.294375 9.74625 0.135 13.2225C0.02625 15.6225 0 16.3894 0 22.5C0 28.6106 0.02625 29.3775 0.135 31.7775C0.294375 35.2519 1.26562 38.715 3.77625 41.2238C6.29812 43.7456 9.75 44.7056 13.2225 44.865C15.6225 44.9737 16.3894 45 22.5 45C28.6106 45 29.3775 44.9737 31.7775 44.865C35.2537 44.7056 38.7113 43.7363 41.2238 41.2238C43.7494 38.6981 44.7056 35.2537 44.865 31.7775C44.9737 29.3775 45 28.6106 45 22.5C45 16.3894 44.9737 15.6225 44.865 13.2225C44.7056 9.74438 43.7363 6.28875 41.2238 3.77625C38.7056 1.25812 35.2444 0.2925 31.7775 0.135C29.3775 0.02625 28.6106 0 22.5 0Z" fill="url(#paint0_linear_335_65)"/>
<path d="M22.5 10.9463C16.1194 10.9463 10.9463 16.1194 10.9463 22.5C10.9463 28.8807 16.1194 34.0538 22.5 34.0538C28.8807 34.0538 34.0538 28.8807 34.0538 22.5C34.0538 16.1194 28.8807 10.9463 22.5 10.9463ZM22.5 30C18.3582 30 15 26.6419 15 22.5C15 18.3582 18.3582 15 22.5 15C26.6419 15 30 18.3582 30 22.5C30 26.6419 26.6419 30 22.5 30Z" fill="url(#paint1_linear_335_65)"/>
<path d="M34.5113 13.1888C36.0024 13.1888 37.2113 11.98 37.2113 10.4888C37.2113 8.99765 36.0024 7.78882 34.5113 7.78882C33.0201 7.78882 31.8113 8.99765 31.8113 10.4888C31.8113 11.98 33.0201 13.1888 34.5113 13.1888Z" fill="url(#paint2_linear_335_65)"/>
<defs>
<linearGradient id="paint0_linear_335_65" x1="22.5" y1="0" x2="22.5" y2="45" gradientUnits="userSpaceOnUse">
<stop stop-color="#4BE3EB"/>
<stop offset="1" stop-color="#03989F"/>
</linearGradient>
<linearGradient id="paint1_linear_335_65" x1="22.5" y1="10.9463" x2="22.5" y2="34.0538" gradientUnits="userSpaceOnUse">
<stop stop-color="#4BE3EB"/>
<stop offset="1" stop-color="#03989F"/>
</linearGradient>
<linearGradient id="paint2_linear_335_65" x1="34.5113" y1="7.78882" x2="34.5113" y2="13.1888" gradientUnits="userSpaceOnUse">
<stop stop-color="#4BE3EB"/>
<stop offset="1" stop-color="#03989F"/>
</linearGradient>
</defs>
</svg>
