<svg width="45" height="45" viewBox="0 0 45 45" fill="none" xmlns="http://www.w3.org/2000/svg">
<path d="M45 38.75C45 42.2025 42.2025 45 38.75 45H6.25C2.79875 45 0 42.2025 0 38.75V6.25C0 2.7975 2.79875 0 6.25 0H38.75C42.2025 0 45 2.7975 45 6.25V38.75Z" fill="url(#paint0_linear_335_64)"/>
<path d="M7.75854 16.3577H13.9008V37.2413H7.75854V16.3577ZM10.8112 13.9008H10.7768C8.944 13.9008 7.75854 12.5348 7.75854 10.8284C7.75854 9.08527 8.98085 7.75854 10.8469 7.75854C12.7153 7.75854 13.8664 9.08527 13.9008 10.8284C13.9008 12.5335 12.7153 13.9008 10.8112 13.9008ZM37.2413 37.2413H31.0991V26.0637C31.0991 23.3635 29.5942 21.5208 27.1779 21.5208C25.334 21.5208 24.3365 22.764 23.8524 23.9655C23.6755 24.3954 23.7284 25.5846 23.7284 26.1853V37.2413H17.5861V16.3577H23.7284V19.5713C24.6141 18.2004 26.001 16.3577 29.5488 16.3577C33.9441 16.3577 37.2401 19.1217 37.2401 25.2934L37.2413 37.2413Z" fill="#141414"/>
<defs>
<linearGradient id="paint0_linear_335_64" x1="22.5" y1="0" x2="22.5" y2="45" gradientUnits="userSpaceOnUse">
<stop stop-color="#4BE3EB"/>
<stop offset="1" stop-color="#03989F"/>
</linearGradient>
</defs>
</svg>
