<svg width="180" height="138" viewBox="0 0 180 138" fill="none" xmlns="http://www.w3.org/2000/svg">
<path d="M4.71552 131.509C-1.57184 125.19 -1.57184 114.946 4.71552 108.628L108.094 4.73879C114.382 -1.5796 124.575 -1.5796 130.863 4.73879C137.15 11.0572 137.15 21.3013 130.863 27.6197L27.4841 131.509C21.1967 137.827 11.0029 137.827 4.71552 131.509Z" fill="#03989F"/>
<path d="M48.5084 133.261C42.2211 126.943 42.2211 116.699 48.5084 110.38L151.887 6.4914C158.175 0.173009 168.368 0.173009 174.656 6.4914C180.943 12.8098 180.943 23.0539 174.656 29.3723L71.277 133.261C64.9896 139.58 54.7958 139.58 48.5084 133.261Z" fill="#4BE3EB"/>
<path d="M180 131.654C173.236 135.053 166.038 136.752 158.406 136.752C151.642 136.752 145.485 135.706 139.935 133.615C127.967 129.17 117.777 120.499 109.365 107.601C107.197 104.463 103.164 98.4499 97.2674 89.5606C91.3703 80.6714 87.5545 75.0066 85.8201 72.5664C82.7848 67.7732 80.3566 65.1587 78.5354 64.723V63.4157C78.6222 63.4157 78.7089 63.4157 78.7956 63.4157C78.9691 63.4157 79.1425 63.4157 79.3159 63.4157C79.4894 63.4157 79.6628 63.4157 79.8363 63.4157C80.0097 63.4157 80.2265 63.4157 80.4867 63.4157C80.7469 63.4157 80.9637 63.4157 81.1371 63.4157C85.5599 63.4157 89.6359 62.4135 93.3649 60.409C99.0018 57.2716 101.82 51.4762 101.82 43.0227C101.82 36.835 100.086 32.0853 96.617 28.7737C93.1481 25.3748 88.9854 23.6754 84.129 23.6754H74.2427V99.8879C74.2427 102.154 75.0666 104.115 76.7143 105.771C78.362 107.339 80.3132 108.124 82.568 108.124H84.2591V109.431H44.7139V108.124H46.405C48.5731 108.124 50.4809 107.339 52.1286 105.771C53.7764 104.202 54.6436 102.285 54.7303 100.019V27.4664C54.6436 25.2005 53.7764 23.2832 52.1286 21.7145C50.5677 20.0587 48.6598 19.2308 46.405 19.2308H44.7139V17.9235H89.3323C100.519 17.9235 109.192 20.4944 115.349 25.6363C120.205 29.6452 122.634 35.3099 122.634 42.6305C122.634 49.9511 120.249 55.9208 115.479 60.5398C110.796 65.0716 105.419 67.3374 99.3487 67.3374C98.8284 67.3374 98.2647 67.2939 97.6576 67.2067C101.213 69.124 104.162 71.2592 106.503 73.6122C108.931 75.9653 111.013 78.1876 112.747 80.2792C114.568 82.3708 116.086 84.2445 117.3 85.9004C118.601 87.4691 120.292 89.6042 122.373 92.3059C124.455 94.9204 126.623 97.6656 128.877 100.542C131.132 103.417 133.604 106.381 136.292 109.431C139.067 112.394 142.103 115.226 145.398 117.928C148.78 120.63 152.206 122.852 155.675 124.595C163.046 128.342 171.154 130.26 180 130.347V131.654Z" fill="white"/>
</svg>
