<svg width="151" height="38" viewBox="0 0 151 38" fill="none" xmlns="http://www.w3.org/2000/svg">
<path d="M41.6 35.52C39.52 36.56 37.3067 37.08 34.96 37.08C32.88 37.08 30.9867 36.76 29.28 36.12C25.6 34.76 22.4667 32.1067 19.88 28.16C19.2133 27.2 17.9733 25.36 16.16 22.64C14.3467 19.92 13.1733 18.1867 12.64 17.44C11.7067 15.9733 10.96 15.1733 10.4 15.04V14.64C10.4267 14.64 10.4533 14.64 10.48 14.64C10.5333 14.64 10.5867 14.64 10.64 14.64C10.6933 14.64 10.7467 14.64 10.8 14.64C10.8533 14.64 10.92 14.64 11 14.64C11.08 14.64 11.1467 14.64 11.2 14.64C12.56 14.64 13.8133 14.3333 14.96 13.72C16.6933 12.76 17.56 10.9867 17.56 8.4C17.56 6.50667 17.0267 5.05333 15.96 4.04C14.8933 3 13.6133 2.48 12.12 2.48H9.08V25.8C9.08 26.4933 9.33333 27.0933 9.84 27.6C10.3467 28.08 10.9467 28.32 11.64 28.32H12.16V28.72H0V28.32H0.52C1.18667 28.32 1.77333 28.08 2.28 27.6C2.78667 27.12 3.05333 26.5333 3.08 25.84V3.64C3.05333 2.94667 2.78667 2.36 2.28 1.88C1.8 1.37333 1.21333 1.12 0.52 1.12H0V0.72H13.72C17.16 0.72 19.8267 1.50667 21.72 3.08C23.2133 4.30667 23.96 6.04 23.96 8.28C23.96 10.52 23.2267 12.3467 21.76 13.76C20.32 15.1467 18.6667 15.84 16.8 15.84C16.64 15.84 16.4667 15.8267 16.28 15.8C17.3733 16.3867 18.28 17.04 19 17.76C19.7467 18.48 20.3867 19.16 20.92 19.8C21.48 20.44 21.9467 21.0133 22.32 21.52C22.72 22 23.24 22.6533 23.88 23.48C24.52 24.28 25.1867 25.12 25.88 26C26.5733 26.88 27.3333 27.7867 28.16 28.72C29.0133 29.6267 29.9467 30.4933 30.96 31.32C32 32.1467 33.0533 32.8267 34.12 33.36C36.3867 34.5067 38.88 35.0933 41.6 35.12V35.52Z" fill="var(--cor-texto)"/>
<path d="M44.7453 0.16C49.6786 0.16 53.5986 1.46667 56.5053 4.08C59.412 6.69333 60.8653 10.24 60.8653 14.72C60.8653 19.2 59.412 22.7467 56.5053 25.36C53.5986 27.9733 49.6786 29.28 44.7453 29.28C39.812 29.28 35.892 27.9733 32.9853 25.36C30.0786 22.7467 28.6253 19.2 28.6253 14.72C28.6253 11.76 29.2786 9.18667 30.5853 7C31.9186 4.78667 33.7986 3.09333 36.2253 1.92C38.652 0.746667 41.492 0.16 44.7453 0.16ZM37.7453 24.16C39.4786 26.4533 41.812 27.6 44.7453 27.6C47.6786 27.6 49.9986 26.4533 51.7053 24.16C53.4386 21.84 54.3053 18.6933 54.3053 14.72C54.3053 12.1067 53.9186 9.82667 53.1453 7.88C52.372 5.93333 51.2653 4.44 49.8253 3.4C48.3853 2.36 46.692 1.84 44.7453 1.84C41.812 1.84 39.4786 3 37.7453 5.32C36.0386 7.61333 35.1853 10.7467 35.1853 14.72C35.1853 18.6933 36.0386 21.84 37.7453 24.16Z" fill="var(--cor-texto)"/>
<path d="M94.63 1.12C93.9633 1.12 93.39 1.36 92.91 1.84C92.43 2.29333 92.1767 2.85333 92.15 3.52V24.16C92.15 25.9467 92.27 27.4533 92.51 28.68L92.63 29.28H92.27L72.07 10.04V25.92C72.07 26.5867 72.31 27.16 72.79 27.64C73.27 28.0933 73.8433 28.32 74.51 28.32H75.27V28.72H63.15V28.32H63.87C64.5633 28.32 65.15 28.0933 65.63 27.64C66.11 27.16 66.35 26.5733 66.35 25.88V5.12C66.35 3.36 66.23 1.89333 65.99 0.72L65.91 0.120001H66.27L86.47 19.36V3.56C86.4433 2.86667 86.19 2.29333 85.71 1.84C85.23 1.36 84.6567 1.12 83.99 1.12H83.27V0.72H95.39V1.12H94.63Z" fill="var(--cor-texto)"/>
<path d="M98.1344 28.32C98.8277 28.32 99.4144 28.08 99.8944 27.6C100.401 27.0933 100.668 26.4933 100.694 25.8V3.52C100.614 2.58667 100.174 1.89333 99.3744 1.44C98.9744 1.22667 98.561 1.12 98.1344 1.12H97.6144V0.72H112.934C113.761 0.72 114.668 0.640001 115.654 0.480001C116.641 0.320001 117.334 0.160001 117.734 0V7H117.334V6.52C117.334 5.32 116.974 4.36 116.254 3.64C115.561 2.89333 114.614 2.49333 113.414 2.44H106.694V14.08H111.974C112.961 14.0533 113.774 13.72 114.414 13.08C115.054 12.4133 115.374 11.6 115.374 10.64V10.28H115.774V19.52H115.374V19.2C115.374 17.8667 114.841 16.88 113.774 16.24C113.241 15.9467 112.654 15.7867 112.014 15.76H106.694V27H111.934C113.881 27 115.508 26.44 116.814 25.32C118.148 24.2 119.134 22.6133 119.774 20.56H120.174L118.334 28.72H97.6144V28.32H98.1344Z" fill="var(--cor-texto)"/>
<path d="M150.569 1.12H150.009C149.209 1.12 148.449 1.34667 147.729 1.8C147.009 2.25333 146.435 2.8 146.009 3.44L138.129 16V25.8C138.129 26.4933 138.382 27.0933 138.889 27.6C139.395 28.08 139.995 28.32 140.689 28.32H141.169L141.209 28.72H129.049V28.32H129.569C130.262 28.32 130.849 28.08 131.329 27.6C131.835 27.12 132.102 26.5333 132.129 25.84V15.96L124.489 3.4C124.089 2.76 123.515 2.22667 122.769 1.8C122.049 1.34667 121.302 1.12 120.529 1.12H119.969V0.72H133.209V1.12H132.689C132.102 1.12 131.649 1.38667 131.329 1.92C131.169 2.21333 131.089 2.50667 131.089 2.8C131.089 3.06667 131.155 3.33333 131.289 3.6L137.009 14L142.929 3.6C143.089 3.33333 143.169 3.06667 143.169 2.8C143.169 2.50667 143.075 2.22667 142.889 1.96C142.569 1.4 142.115 1.12 141.529 1.12H141.049V0.72H150.569V1.12Z" fill="var(--cor-texto)"/>
</svg>
