<svg width="152" height="38" viewBox="0 0 152 38" fill="none" xmlns="http://www.w3.org/2000/svg">
<path d="M42.4001 35.8C40.3201 36.84 38.1067 37.36 35.7601 37.36C33.6801 37.36 31.7867 37.04 30.08 36.4C26.4001 35.04 23.2667 32.3867 20.6801 28.44C20.0134 27.48 18.7734 25.64 16.9601 22.92C15.1467 20.2 13.9734 18.4667 13.4401 17.72C12.5067 16.2533 11.76 15.4533 11.2 15.32V14.92C11.2267 14.92 11.2534 14.92 11.28 14.92C11.3334 14.92 11.3867 14.92 11.44 14.92C11.4934 14.92 11.5467 14.92 11.6 14.92C11.6534 14.92 11.72 14.92 11.8 14.92C11.88 14.92 11.9467 14.92 12 14.92C13.36 14.92 14.6134 14.6133 15.76 14C17.4934 13.04 18.3601 11.2667 18.3601 8.68C18.3601 6.78667 17.8267 5.33333 16.76 4.32C15.6934 3.28 14.4134 2.76 12.92 2.76H9.88005V26.08C9.88005 26.7733 10.1334 27.3733 10.64 27.88C11.1467 28.36 11.7467 28.6 12.4401 28.6H12.96V29H0.800049V28.6H1.32005C1.98672 28.6 2.57338 28.36 3.08005 27.88C3.58672 27.4 3.85338 26.8133 3.88005 26.12V3.92C3.85338 3.22667 3.58672 2.64 3.08005 2.16C2.60005 1.65333 2.01338 1.4 1.32005 1.4H0.800049V0.999999H14.52C17.96 0.999999 20.6267 1.78667 22.52 3.36C24.0134 4.58667 24.7601 6.32 24.7601 8.56C24.7601 10.8 24.0267 12.6267 22.5601 14.04C21.1201 15.4267 19.4667 16.12 17.6 16.12C17.44 16.12 17.2667 16.1067 17.08 16.08C18.1734 16.6667 19.0801 17.32 19.8001 18.04C20.5467 18.76 21.1867 19.44 21.72 20.08C22.28 20.72 22.7467 21.2933 23.1201 21.8C23.5201 22.28 24.0401 22.9333 24.68 23.76C25.32 24.56 25.9867 25.4 26.68 26.28C27.3734 27.16 28.1334 28.0667 28.96 29C29.8134 29.9067 30.7467 30.7733 31.7601 31.6C32.8001 32.4267 33.8534 33.1067 34.9201 33.64C37.1867 34.7867 39.6801 35.3733 42.4001 35.4V35.8Z" fill="#141414"/>
<path d="M45.5454 0.439999C50.4787 0.439999 54.3987 1.74667 57.3054 4.36C60.212 6.97333 61.6654 10.52 61.6654 15C61.6654 19.48 60.212 23.0267 57.3054 25.64C54.3987 28.2533 50.4787 29.56 45.5454 29.56C40.612 29.56 36.692 28.2533 33.7854 25.64C30.8787 23.0267 29.4254 19.48 29.4254 15C29.4254 12.04 30.0787 9.46667 31.3854 7.28C32.7187 5.06667 34.5987 3.37333 37.0254 2.2C39.452 1.02667 42.292 0.439999 45.5454 0.439999ZM38.5454 24.44C40.2787 26.7333 42.612 27.88 45.5454 27.88C48.4787 27.88 50.7987 26.7333 52.5054 24.44C54.2387 22.12 55.1054 18.9733 55.1054 15C55.1054 12.3867 54.7187 10.1067 53.9454 8.16C53.172 6.21333 52.0654 4.72 50.6254 3.68C49.1854 2.64 47.492 2.12 45.5454 2.12C42.612 2.12 40.2787 3.28 38.5454 5.6C36.8387 7.89333 35.9854 11.0267 35.9854 15C35.9854 18.9733 36.8387 22.12 38.5454 24.44Z" fill="#141414"/>
<path d="M95.4301 1.4C94.7634 1.4 94.1901 1.64 93.7101 2.12C93.2301 2.57333 92.9767 3.13333 92.9501 3.8V24.44C92.9501 26.2267 93.0701 27.7333 93.3101 28.96L93.43 29.56H93.0701L72.87 10.32V26.2C72.87 26.8667 73.11 27.44 73.59 27.92C74.07 28.3733 74.6434 28.6 75.3101 28.6H76.07V29H63.9501V28.6H64.67C65.3634 28.6 65.95 28.3733 66.43 27.92C66.91 27.44 67.15 26.8533 67.15 26.16V5.4C67.15 3.64 67.03 2.17333 66.79 0.999999L66.7101 0.4H67.07L87.2701 19.64V3.84C87.2434 3.14667 86.99 2.57333 86.51 2.12C86.03 1.64 85.4567 1.4 84.79 1.4H84.0701V0.999999H96.19V1.4H95.4301Z" fill="#141414"/>
<path d="M98.9344 28.6C99.6278 28.6 100.214 28.36 100.694 27.88C101.201 27.3733 101.468 26.7733 101.494 26.08V3.8C101.414 2.86667 100.974 2.17333 100.174 1.72C99.7744 1.50667 99.3611 1.4 98.9344 1.4H98.4144V0.999999H113.734C114.561 0.999999 115.468 0.919999 116.454 0.76C117.441 0.6 118.134 0.44 118.534 0.279999V7.28H118.134V6.8C118.134 5.6 117.774 4.64 117.054 3.92C116.361 3.17333 115.414 2.77333 114.214 2.72H107.494V14.36H112.774C113.761 14.3333 114.574 14 115.214 13.36C115.854 12.6933 116.174 11.88 116.174 10.92V10.56H116.574V19.8H116.174V19.48C116.174 18.1467 115.641 17.16 114.574 16.52C114.041 16.2267 113.454 16.0667 112.814 16.04H107.494V27.28H112.734C114.681 27.28 116.308 26.72 117.614 25.6C118.948 24.48 119.934 22.8933 120.574 20.84H120.974L119.134 29H98.4144V28.6H98.9344Z" fill="#141414"/>
<path d="M151.369 1.4H150.809C150.009 1.4 149.249 1.62667 148.529 2.08C147.809 2.53333 147.235 3.08 146.809 3.72L138.929 16.28V26.08C138.929 26.7733 139.182 27.3733 139.689 27.88C140.195 28.36 140.795 28.6 141.489 28.6H141.969L142.009 29H129.849V28.6H130.369C131.062 28.6 131.649 28.36 132.129 27.88C132.635 27.4 132.902 26.8133 132.929 26.12V16.24L125.289 3.68C124.889 3.04 124.315 2.50667 123.569 2.08C122.849 1.62667 122.102 1.4 121.329 1.4H120.769V0.999999H134.009V1.4H133.489C132.902 1.4 132.449 1.66667 132.129 2.2C131.969 2.49333 131.889 2.78667 131.889 3.08C131.889 3.34667 131.955 3.61333 132.089 3.88L137.809 14.28L143.729 3.88C143.889 3.61333 143.969 3.34667 143.969 3.08C143.969 2.78667 143.875 2.50667 143.689 2.24C143.369 1.68 142.915 1.4 142.329 1.4H141.849V0.999999H151.369V1.4Z" fill="#141414"/>
</svg>
