<svg width="30" height="30" viewBox="0 0 30 30" fill="none" xmlns="http://www.w3.org/2000/svg">
<g clip-path="url(#clip0_382_41)">
<path fill-rule="evenodd" clip-rule="evenodd" d="M25.5788 4.36C22.7713 1.55 19.0388 0.00125 15.0625 0C6.86879 0 0.200039 6.6675 0.196289 14.865C0.195039 17.485 0.880039 20.0425 2.18129 22.2975L0.0712891 30L7.95129 27.9325C10.1225 29.1175 12.5675 29.7413 15.055 29.7425H15.0613C23.2538 29.7425 29.9238 23.0738 29.9275 14.8763C29.93 10.905 28.385 7.16875 25.5788 4.36ZM15.0625 27.2312H15.0575C12.84 27.2312 10.6663 26.635 8.76879 25.5087L8.31754 25.2413L3.64129 26.4675L4.89004 21.9075L4.59629 21.44C3.35879 19.4725 2.70629 17.1988 2.70754 14.865C2.71004 8.0525 8.25379 2.51 15.0688 2.51C18.3688 2.51 21.4713 3.7975 23.8038 6.1325C26.1363 8.46875 27.42 11.5725 27.4188 14.8738C27.415 21.6888 21.8725 27.2312 15.0625 27.2312ZM21.84 17.9775C21.4688 17.7912 19.6425 16.8925 19.3013 16.7687C18.9613 16.645 18.7138 16.5825 18.465 16.9537C18.2163 17.325 17.5063 18.1625 17.2888 18.4113C17.0725 18.6588 16.855 18.69 16.4838 18.5038C16.1125 18.3175 14.915 17.9263 13.4963 16.66C12.3925 15.675 11.6463 14.4588 11.43 14.0863C11.2138 13.7138 11.4075 13.5138 11.5925 13.3288C11.76 13.1625 11.9638 12.895 12.15 12.6775C12.3375 12.4625 12.3988 12.3075 12.5238 12.0588C12.6475 11.8113 12.5863 11.5938 12.4925 11.4075C12.3988 11.2225 11.6563 9.39375 11.3475 8.65C11.0463 7.925 10.74 8.02375 10.5113 8.0125C10.295 8.00125 10.0475 8 9.79879 8C9.55129 8 9.14879 8.0925 8.80879 8.465C8.46879 8.8375 7.50879 9.73625 7.50879 11.5638C7.50879 13.3925 8.84004 15.1587 9.02504 15.4062C9.21004 15.6537 11.6438 19.4063 15.37 21.015C16.2563 21.3975 16.9488 21.6262 17.4875 21.7975C18.3775 22.08 19.1875 22.04 19.8275 21.945C20.5413 21.8387 22.025 21.0462 22.335 20.1787C22.645 19.3112 22.645 18.5662 22.5513 18.4125C22.4588 18.2562 22.2113 18.1637 21.84 17.9775Z" fill="url(#paint0_linear_382_41)"/>
</g>
<defs>
<linearGradient id="paint0_linear_382_41" x1="14.9994" y1="0" x2="14.9994" y2="30" gradientUnits="userSpaceOnUse">
<stop stop-color="#4BE3EB"/>
<stop offset="1" stop-color="#03989F"/>
</linearGradient>
<clipPath id="clip0_382_41">
<rect width="30" height="30" fill="white"/>
</clipPath>
</defs>
</svg>
