<svg width="45" height="45" viewBox="0 0 45 45" fill="none" xmlns="http://www.w3.org/2000/svg">
<g clip-path="url(#clip0_382_41)">
<path fill-rule="evenodd" clip-rule="evenodd" d="M38.3682 6.54C34.1569 2.325 28.5582 0.001875 22.5938 0C10.3032 0 0.300059 10.0013 0.294434 22.2975C0.292559 26.2275 1.32006 30.0637 3.27193 33.4462L0.106934 45L11.9269 41.8988C15.1838 43.6763 18.8513 44.6119 22.5826 44.6138H22.5919C34.8807 44.6138 44.8857 34.6106 44.8913 22.3144C44.8951 16.3575 42.5776 10.7531 38.3682 6.54ZM22.5938 40.8469H22.5863C19.2601 40.8469 15.9994 39.9525 13.1532 38.2631L12.4763 37.8619L5.46193 39.7012L7.33506 32.8612L6.89443 32.16C5.03818 29.2088 4.05943 25.7981 4.06131 22.2975C4.06506 12.0788 12.3807 3.765 22.6032 3.765C27.5532 3.765 32.2069 5.69625 35.7057 9.19875C39.2044 12.7031 41.1301 17.3588 41.1282 22.3106C41.1226 32.5331 32.8088 40.8469 22.5938 40.8469ZM32.7601 26.9662C32.2032 26.6869 29.4638 25.3387 28.9519 25.1531C28.4419 24.9675 28.0707 24.8737 27.6976 25.4306C27.3244 25.9875 26.2594 27.2438 25.9332 27.6169C25.6088 27.9881 25.2826 28.035 24.7257 27.7556C24.1688 27.4763 22.3726 26.8894 20.2444 24.99C18.5888 23.5125 17.4694 21.6881 17.1451 21.1294C16.8207 20.5706 17.1113 20.2706 17.3888 19.9931C17.6401 19.7438 17.9457 19.3425 18.2251 19.0163C18.5063 18.6938 18.5982 18.4613 18.7857 18.0881C18.9713 17.7169 18.8794 17.3906 18.7388 17.1113C18.5982 16.8338 17.4844 14.0906 17.0213 12.975C16.5694 11.8875 16.1101 12.0356 15.7669 12.0187C15.4426 12.0019 15.0713 12 14.6982 12C14.3269 12 13.7232 12.1387 13.2132 12.6975C12.7032 13.2562 11.2632 14.6044 11.2632 17.3456C11.2632 20.0888 13.2601 22.7381 13.5376 23.1094C13.8151 23.4806 17.4657 29.1094 23.0551 31.5225C24.3844 32.0963 25.4232 32.4394 26.2313 32.6962C27.5663 33.12 28.7813 33.06 29.7413 32.9175C30.8119 32.7581 33.0376 31.5694 33.5026 30.2681C33.9676 28.9669 33.9676 27.8494 33.8269 27.6187C33.6882 27.3844 33.3169 27.2456 32.7601 26.9662Z" fill="url(#paint0_linear_382_41)"/>
</g>
<defs>
<linearGradient id="paint0_linear_382_41" x1="22.4991" y1="0" x2="22.4991" y2="45" gradientUnits="userSpaceOnUse">
<stop stop-color="#4BE3EB"/>
<stop offset="1" stop-color="#03989F"/>
</linearGradient>
<clipPath id="clip0_382_41">
<rect width="45" height="45" fill="white"/>
</clipPath>
</defs>
</svg>
